<?xml version="1.0" encoding="utf-8"?>
<!-- Generator: Adobe Illustrator 18.1.1, SVG Export Plug-In . SVG Version: 6.00 Build 0)  -->
<svg version="1.1" id="Layer_1" xmlns="http://www.w3.org/2000/svg" xmlns:xlink="http://www.w3.org/1999/xlink" x="0px" y="0px"
     viewBox="-524 373.9 229.6 55.1" enable-background="new -524 373.9 229.6 55.1" xml:space="preserve">
<g>
	<path fill="#1AA5DE" d="M-504.7,396.5l2.2-9.6c0.7-2.7,0.8-3.3,1.3-5.8l0.2-0.2c2.9,0,3.8,0,7.2-0.1l0.2,0.2c0,2.9,0.1,3.6,0.2,7.4
		l0.2,5.4c0.3,6.5,0.4,8,0.6,11.4l-0.2,0.2c-2.6,0-3.4,0-5.4,0.1l-0.2-0.2c0-4.3,0-4.9-0.1-9.7l-0.1-9.3l-2.6,11.3
		c-0.9,3.8-1.2,5.6-1.6,7.6l-0.2,0.2c-1.8,0-2.4,0-4.2,0.1l-0.2-0.2c-0.5-2.2-1.1-4.9-1.6-7.3l-2.6-11.4l-0.2,8
		c-0.2,7.2-0.2,8-0.2,10.6l-0.2,0.2c-1.9,0-2.5,0-4.5,0.1l-0.2-0.2c0.3-5.7,0.3-6.3,0.6-10.1l0.3-7.6c0.1-3.3,0.1-4.9,0.2-6.5
		l0.2-0.2c3.1,0,4,0,7.4-0.1l0.2,0.2c0.4,1.8,0.4,1.9,1.2,5.6L-504.7,396.5z"/>
	<path fill="#1AA5DE" d="M-480.8,403.5c-1,1-2.5,2.3-4.8,2.3c-3.7,0-4.1-3.4-4.2-4.2c-0.1-1-0.1-2.2-0.1-4.2l0-1.8
		c0-5,0-5.8-0.1-8.2l0.2-0.2c2.2,0,2.7,0,5.1-0.2l0.2,0.2c0,1.2-0.1,7.1-0.1,8.5c0,0.8,0,3.7,0.1,4.3c0,0.4,0.2,1.6,1.7,1.6
		c1,0,1.5-0.6,2-1l0-2.8c0-0.7-0.1-7.5-0.2-10.3l0.2-0.2c2.3,0,2.9-0.1,5.1-0.2l0.2,0.2c0,2.2-0.1,3.4-0.1,6.7c0,0.7,0,5.2,0,7.2
		c0,1.9,0.1,3.2,0.1,4.2l-0.2,0.2c-2.5,0-2.9,0-5,0.1l-0.2-0.1L-480.8,403.5z"/>
	<path fill="#1AA5DE" d="M-467,405.4c-2.3,0-2.9,0-5.4,0.1l-0.2-0.2c0.1-2.2,0.1-4.5,0.1-9.4c0-3.2,0-6.4,0-9.5
		c-0.1-3.5-0.2-4.6-0.3-6.3l0.2-0.2c2.3-0.4,3.2-0.5,5.3-1l0.2,0.2c0,2,0,3.3,0,6.2c0,1.1,0,8.9,0.1,13.5c0.1,3.1,0.1,4.8,0.2,6.4
		L-467,405.4z"/>
	<path fill="#1AA5DE" d="M-455.9,391c-1.5,0-1.6,0-2.4,0v4.4c0,0.9,0,2.2,0,3.1c0,1.8,0,3.5,1.6,3.5c0.6,0,0.9-0.2,1.1-0.3l0.2,0.2
		c-0.1,1.5-0.1,1.8-0.2,3.4l-0.2,0.3c-0.8,0.2-1.8,0.3-2.8,0.3c-0.8,0-2.9,0-4.1-1.6c-0.9-1.2-0.9-2.7-0.8-5.2l0-2.1
		c0-0.9,0-5.1,0-6.1c-0.6,0-1,0-1.7,0.1l-0.2-0.2c0.1-1.6,0.1-1.6,0.1-3.4l0.2-0.2c0.7,0,0.8,0,1.6,0c0-0.6,0-1,0-4.2l0.2-0.2
		c2.3-0.6,2.9-0.8,5-1.4l0.2,0.2c-0.1,1.5-0.1,1.9-0.1,5.8c1.2,0,1.5,0,2.5-0.1l0.2,0.2c-0.1,1.6-0.1,1.8-0.2,3.4L-455.9,391z"/>
	<path fill="#1AA5DE" d="M-448.2,405.5c-2.2,0-3.1,0-5.5,0.1l-0.2-0.2c0.1-2.2,0.2-4.4,0.2-8.3c0-5.5-0.2-7.4-0.3-9.2l0.2-0.2
		c2.4-0.3,3.1-0.5,5.4-1l0.2,0.2c0,0.5,0,1,0,1.4c0,2.1-0.1,4.1-0.1,6.2c0,3.6,0.1,7.2,0.3,10.8L-448.2,405.5z M-448.7,383.8
		c-2.1,0.2-2.7,0.3-4.8,0.7l-0.2-0.2c0-1.8,0-2.3-0.1-4.2l0.2-0.2c2.4-0.2,2.8-0.3,4.9-0.6l0.2,0.2c-0.1,2,0,2.5,0,4.1L-448.7,383.8
		z"/>
</g>
<g>
	<path fill="#171113" d="M-433.2,386.1c-0.9-0.7-1.9-1.6-3.9-1.6c-1.8,0-2.9,1-2.9,2.5c0,1.1,0.6,1.9,1.7,2.7
		c0.3,0.3,2.2,1.6,2.6,1.8c2.2,1.5,4,3.1,3.9,6.6c0,2.3-0.8,4.1-1.8,5.2c-1.8,2-4.3,2.5-6.6,2.5c-1.4,0-3.4-0.2-5.2-1.1l-0.2-0.3
		c0-0.7,0.1-1.5,0.1-2.3c0-0.7,0.1-1.3,0.1-2l0.3-0.1c1.2,1.1,2.7,1.7,4.3,1.7c2.6,0,3.3-1.8,3.3-3c0-1.5-1-2.4-2.6-3.5l-1.5-1
		c-1.8-1.3-4.1-2.9-4.1-6.7c0-2.5,0.9-4.2,1.9-5.2c1.6-1.6,3.8-1.9,5.8-1.9c1.8,0,3.6,0.3,5.2,1.1l0.1,0.3c-0.1,0.7-0.1,1.5-0.2,2.2
		l-0.1,2L-433.2,386.1z"/>
	<path fill="#171113" d="M-421.5,404c-0.6,0.5-1.8,1.8-4.1,1.8c-2.6,0-4.6-2-4.6-5.7c0-5.2,4.6-6.4,8.7-7.2c0-1.2,0-2.5-2.5-2.5
		c-2.3,0-3.7,0.9-4.4,1.4l-0.2-0.1c0.1-1.6,0.1-2,0.2-3.5l0.2-0.3c2-0.9,4.6-1.1,5.9-1.1c1.4,0,4.1,0.2,5.4,2.4
		c0.8,1.4,0.8,2.9,0.7,5.8l0,2.7c0,2.9,0,4.9,0.3,7.6l-0.2,0.2c-2.3,0-2.8,0-4.9,0.1l-0.2-0.2L-421.5,404z M-421.6,396.1
		c-1.5,0.2-3.7,0.6-3.7,3.4c0,1.5,0.8,2.4,1.9,2.4c1,0,1.6-0.6,1.9-0.9L-421.6,396.1z"/>
	<path fill="#171113" d="M-405.3,391c-1,0-1.6,0-2.2,0c0,8.2,0.1,11.4,0.2,14.4l-0.2,0.2c-2.5,0-3,0-5.3,0.1l-0.2-0.2
		c0-0.4,0-0.9,0-1.3c0.1-2.4,0.1-10.1,0.1-13.2c-0.8,0-1,0-1.7,0.1l-0.2-0.2c0.1-1.3,0.1-1.8,0.2-3.4l0.2-0.2
		c0.7,0.1,0.8,0.1,1.5,0.1c0-2.7-0.1-4.9,1-6.3c1.4-1.8,4-1.8,4.7-1.8c1.2,0,2,0.2,2.4,0.2l0.1,0.2c-0.1,1.5-0.2,1.9-0.2,3.6
		l-0.2,0.2c-0.2-0.1-0.5-0.2-0.8-0.2c-0.7,0-1.1,0.3-1.4,0.7c-0.4,0.6-0.4,1.3-0.4,3.4c1.1,0,1.4,0,2.4-0.1l0.2,0.2
		c-0.1,1.5-0.1,1.9-0.2,3.4L-405.3,391z"/>
	<path fill="#171113" d="M-398.6,397.4c0.1,3.1,1.7,4.6,4.3,4.6c2.1,0,3.3-0.9,3.8-1.2l0.2,0.1c-0.1,1.5-0.1,2.1-0.2,3.6l-0.1,0.3
		c-0.7,0.6-2.9,1.1-4.9,1.1c-6,0-8.4-3.8-8.4-9.6c0-1.2,0.1-2.5,0.4-3.8c1-4.2,4-5.8,7-5.8c1,0,2,0.2,2.9,0.6
		c3.3,1.5,3.8,4.7,3.8,8.1c0,0.7,0,1.3,0,1.8l-0.2,0.2L-398.6,397.4z M-394.7,394.1c0-0.6,0-1.1-0.1-1.8c-0.2-1.1-0.7-2.1-1.7-2.1
		c-0.5,0-1.9,0.2-2,3.8L-394.7,394.1z"/>
	<path fill="#171113" d="M-382,386.8c0,0.8,0,0.9,0,1.7c0.8-0.7,2-1.8,4-1.8c2.1,0,3.4,1.3,4.1,2.4c1.2,1.9,1.5,4.4,1.5,6.1
		c0,2.5-0.4,7.8-5.2,9.7c-1.5,0.6-2.4,0.5-4.3,0.5c0,2.5,0.1,5.7,0.2,7l-0.2,0.2c-0.7,0-1.4-0.1-2-0.1c-1.1,0-2,0.1-3.2,0.1
		l-0.2-0.2c0.1-2.8,0.1-5.5,0.1-8.3c0-5.5,0-11.1-0.5-16.5l0.2-0.2c2.5-0.3,3.2-0.5,5.3-0.9L-382,386.8z M-381.8,401.8
		c0.2,0,0.3,0,0.5,0h0.3c3.1-0.3,3.1-4.4,3.1-6.1c0-0.9-0.1-2.5-0.6-3.7c-0.1-0.2-0.6-1.2-1.7-1.2c-0.8,0-1.3,0.5-1.7,0.9
		C-381.9,395.4-381.9,397-381.8,401.8"/>
	<path fill="#171113" d="M-362.3,404c-0.6,0.5-1.8,1.8-4.1,1.8c-2.6,0-4.6-2-4.6-5.7c0-5.2,4.6-6.4,8.7-7.2c0-1.2,0-2.5-2.5-2.5
		c-2.3,0-3.7,0.9-4.4,1.4l-0.2-0.1c0.1-1.6,0.1-2,0.2-3.5l0.2-0.3c2-0.9,4.6-1.1,5.9-1.1c1.4,0,4.1,0.2,5.4,2.4
		c0.8,1.4,0.8,2.9,0.7,5.8l0,2.7c0,2.9,0,4.9,0.3,7.6l-0.2,0.2c-2.3,0-2.8,0-4.9,0.1l-0.2-0.2L-362.3,404z M-362.4,396.1
		c-1.5,0.2-3.7,0.6-3.7,3.4c0,1.5,0.8,2.4,1.9,2.4c1,0,1.6-0.6,1.9-0.9V396.1z"/>
	<path fill="#171113" d="M-352.2,412.6c0.9-2,1.2-3.2,2.4-6.5c-1.6-5.5-4.4-14.4-5.9-18.7l0.2-0.2c2.5,0,3-0.1,5.5-0.2l0.3,0.2
		c0.4,1.8,0.5,2.4,1.4,6.1l1.3,5.2l1.4-5.6c0.7-2.5,0.7-2.7,1.4-5.6l0.2-0.2c1.9,0,2.4,0,4.3-0.1l0.1,0.2c-0.9,2.7-1.1,3.5-3.2,10.2
		l-1.7,5.7c-1.4,4.8-2,6.9-2.5,9.4l-0.2,0.2c-2.3,0-2.7,0-4.7,0.1L-352.2,412.6z"/>
</g>
<g>
	<path fill="#929497" d="M-317.4,377.5c-1.4,0-2.5,1.1-2.5,2.5c0,1.4,1.1,2.5,2.5,2.5c1.4,0,2.5-1.1,2.5-2.5
		C-314.9,378.6-316,377.5-317.4,377.5"/>
	<path fill="#929497" d="M-329.5,382.6c-1,1-1,2.6,0,3.6c1,1,2.6,1,3.6,0c1-1,1-2.6,0-3.6C-327,381.6-328.5,381.6-329.5,382.6"/>
	<path fill="#929497" d="M-304.7,386.2c1-1,1-2.6,0-3.6c-1-1-2.6-1-3.6,0c-1,1-1,2.6,0,3.6C-307.2,387.1-305.6,387.1-304.7,386.2"/>
	<path fill="#929497" d="M-332.2,392.5c-1.4,0-2.5,1.1-2.5,2.5c0,1.4,1.1,2.5,2.5,2.5c1.4,0,2.5-1.1,2.5-2.5
		C-329.7,393.6-330.8,392.5-332.2,392.5"/>
	<path fill="#929497" d="M-329.5,403.9c-1,1-1,2.6,0,3.6c1,1,2.6,1,3.6,0c1-1,1-2.6,0-3.6C-327,402.9-328.6,402.9-329.5,403.9"/>
	<path fill="#929497" d="M-317.1,407.6c-1.4,0-2.5,1.1-2.5,2.5c0,1.4,1.1,2.5,2.5,2.5c1.4,0,2.5-1.1,2.5-2.5
		C-314.6,408.7-315.7,407.6-317.1,407.6"/>
	<path fill="#929497" d="M-308.2,403.9c-1,1-1,2.6,0,3.6c1,1,2.6,1,3.6,0c1-1,1-2.6,0-3.6C-305.6,402.9-307.2,402.9-308.2,403.9"/>
	<path fill="#929497" d="M-302,392.5c-1.4,0-2.5,1.1-2.5,2.5c0,1.4,1.1,2.5,2.5,2.5c1.4,0,2.5-1.1,2.5-2.5
		C-299.5,393.7-300.6,392.5-302,392.5"/>
</g>
<g>
	<path fill="#171113" d="M-517,417.6h1.2c0,0.4,0.2,0.7,0.5,1c0.3,0.3,0.8,0.4,1.3,0.4c0.5,0,0.9-0.1,1.3-0.4c0.3-0.2,0.5-0.6,0.5-1
		c0-0.3-0.1-0.6-0.3-0.7c-0.2-0.2-0.5-0.3-1-0.4l-1.3-0.3c-0.3-0.1-0.5-0.2-0.7-0.3c-0.2-0.1-0.4-0.2-0.6-0.4s-0.3-0.4-0.4-0.6
		c-0.1-0.2-0.2-0.5-0.2-0.8c0-0.5,0.1-0.9,0.4-1.3c0.3-0.4,0.6-0.6,1-0.8c0.4-0.2,0.9-0.3,1.4-0.3c0.5,0,1,0.1,1.4,0.3
		s0.8,0.4,1,0.8c0.3,0.4,0.4,0.8,0.4,1.3h-1.2c0-0.4-0.2-0.7-0.5-0.9c-0.3-0.2-0.7-0.4-1.2-0.4c-0.5,0-0.9,0.1-1.2,0.3
		c-0.3,0.2-0.4,0.5-0.4,0.9c0,0.6,0.4,0.9,1.1,1.1l1.3,0.3c0.3,0.1,0.5,0.1,0.7,0.2c0.2,0.1,0.4,0.2,0.6,0.3
		c0.2,0.1,0.3,0.3,0.4,0.4c0.1,0.2,0.2,0.3,0.3,0.5c0.1,0.2,0.1,0.4,0.1,0.7c0,0.8-0.3,1.4-0.8,1.8c-0.6,0.4-1.3,0.6-2.2,0.6
		c-0.4,0-0.8,0-1.1-0.1c-0.3-0.1-0.6-0.2-0.8-0.4c-0.2-0.2-0.4-0.3-0.5-0.5c-0.1-0.2-0.3-0.4-0.3-0.6
		C-516.9,418-517,417.8-517,417.6z"/>
	<path fill="#171113" d="M-509.6,419.8v-6.2h1.2v0.8h0.1c0.1-0.2,0.3-0.5,0.6-0.6c0.3-0.2,0.6-0.3,1-0.3c0.5,0,0.8,0.1,1.1,0.3
		c0.3,0.2,0.5,0.4,0.6,0.7h0.1c0.1-0.3,0.3-0.5,0.7-0.7c0.3-0.2,0.7-0.3,1.2-0.3c0.6,0,1.1,0.2,1.5,0.6s0.5,0.9,0.5,1.5v4.2h-1.2
		v-3.9c0-0.4-0.1-0.7-0.3-1c-0.2-0.2-0.5-0.4-0.9-0.4c-0.4,0-0.7,0.1-0.9,0.4c-0.2,0.3-0.3,0.6-0.3,1v3.8h-1.2v-3.8
		c0-0.5-0.1-0.8-0.3-1c-0.2-0.2-0.5-0.4-0.9-0.4c-0.4,0-0.7,0.1-0.9,0.4c-0.2,0.2-0.4,0.6-0.4,1v3.8H-509.6z"/>
	<path fill="#171113" d="M-496,419c-0.2,0.3-0.4,0.5-0.7,0.7c-0.3,0.2-0.7,0.3-1.1,0.3c-0.6,0-1.1-0.2-1.5-0.5
		c-0.4-0.3-0.6-0.8-0.6-1.4c0-0.6,0.2-1,0.6-1.3c0.4-0.3,0.9-0.5,1.6-0.5h1.6v-0.7c0-0.7-0.4-1-1.2-1c-0.7,0-1.1,0.3-1.2,0.9h-1.1
		c0-0.6,0.2-1,0.6-1.4c0.4-0.3,1-0.5,1.7-0.5c0.7,0,1.3,0.2,1.7,0.5c0.4,0.3,0.6,0.8,0.6,1.5v4.2h-1.1L-496,419L-496,419z
		 M-497.4,418.9c0.4,0,0.7-0.1,1-0.4c0.3-0.2,0.4-0.5,0.4-0.9V417h-1.4c-0.4,0-0.7,0.1-0.9,0.2c-0.2,0.2-0.3,0.4-0.3,0.7
		c0,0.3,0.1,0.6,0.3,0.7C-498,418.9-497.7,418.9-497.4,418.9z"/>
	<path fill="#171113" d="M-493.1,419.8v-6.2h1.2v0.8h0c0.1-0.1,0.1-0.2,0.2-0.3c0.1-0.1,0.1-0.2,0.3-0.3c0.1-0.1,0.3-0.2,0.4-0.2
		c0.2-0.1,0.4-0.1,0.6-0.1c0.1,0,0.3,0,0.4,0v1.1c-0.1,0-0.3,0-0.5,0c-0.9,0-1.4,0.5-1.4,1.5v3.7H-493.1z"/>
	<path fill="#171113" d="M-488.2,413.6v-1.5h1.2v1.5h1.2v1h-1.2v3.4c0,0.3,0.1,0.6,0.2,0.7c0.1,0.1,0.4,0.2,0.8,0.2
		c0.1,0,0.2,0,0.3,0v0.9c-0.2,0-0.3,0-0.6,0c-0.4,0-0.7,0-0.9-0.1c-0.2-0.1-0.4-0.2-0.6-0.3c-0.1-0.2-0.2-0.3-0.3-0.5
		c-0.1-0.2-0.1-0.5-0.1-0.8v-3.5h-0.8v-1H-488.2z"/>
	<path fill="#171113" d="M-482.1,411.8h3c0.8,0,1.4,0.2,1.9,0.7c0.5,0.5,0.7,1.1,0.7,1.8c0,0.8-0.2,1.4-0.7,1.8
		c-0.5,0.5-1.1,0.7-1.9,0.7h-1.8v2.9h-1.2V411.8z M-480.9,412.8v3h1.1c0.3,0,0.6,0,0.9-0.1c0.2,0,0.4-0.1,0.6-0.2s0.3-0.3,0.4-0.5
		c0.1-0.2,0.1-0.5,0.1-0.8c0-0.5-0.1-0.9-0.4-1.1c-0.3-0.3-0.6-0.4-1.1-0.4H-480.9z"/>
	<path fill="#171113" d="M-472.1,419c-0.2,0.3-0.4,0.5-0.7,0.7c-0.3,0.2-0.7,0.3-1.1,0.3c-0.6,0-1.1-0.2-1.5-0.5
		c-0.4-0.3-0.6-0.8-0.6-1.4c0-0.6,0.2-1,0.6-1.3c0.4-0.3,0.9-0.5,1.6-0.5h1.6v-0.7c0-0.7-0.4-1-1.2-1c-0.7,0-1.1,0.3-1.2,0.9h-1.1
		c0-0.6,0.2-1,0.6-1.4c0.4-0.3,1-0.5,1.7-0.5c0.7,0,1.3,0.2,1.7,0.5c0.4,0.3,0.6,0.8,0.6,1.5v4.2h-1.1L-472.1,419L-472.1,419z
		 M-473.5,418.9c0.4,0,0.7-0.1,1-0.4c0.3-0.2,0.4-0.5,0.4-0.9V417h-1.4c-0.4,0-0.7,0.1-0.9,0.2c-0.2,0.2-0.3,0.4-0.3,0.7
		c0,0.3,0.1,0.6,0.3,0.7C-474.1,418.9-473.9,418.9-473.5,418.9z"/>
	<path fill="#171113" d="M-464.2,413.6c-1.4,4.1-2.1,6.1-2.1,6.1l-0.2,0.4c-0.1,0.2-0.2,0.4-0.2,0.6s-0.2,0.3-0.3,0.5
		c-0.1,0.2-0.3,0.3-0.4,0.4c-0.1,0.1-0.3,0.2-0.5,0.3c-0.2,0.1-0.5,0.1-0.7,0.1c-0.2,0-0.5,0-0.7-0.1V421c0.1,0,0.3,0,0.5,0
		c0.4,0,0.6-0.1,0.8-0.2c0.2-0.2,0.3-0.4,0.4-0.7l0.1-0.3l-2.2-6.2h1.3l1.5,5h0.1l1.6-5H-464.2z"/>
	<path fill="#171113" d="M-463.1,419.8v-6.2h1.2v0.8h0.1c0.1-0.2,0.3-0.5,0.6-0.6c0.3-0.2,0.6-0.3,1-0.3c0.5,0,0.8,0.1,1.1,0.3
		c0.3,0.2,0.5,0.4,0.6,0.7h0.1c0.1-0.3,0.3-0.5,0.7-0.7c0.3-0.2,0.7-0.3,1.2-0.3c0.6,0,1.1,0.2,1.5,0.6s0.5,0.9,0.5,1.5v4.2h-1.2
		v-3.9c0-0.4-0.1-0.7-0.3-1c-0.2-0.2-0.5-0.4-0.9-0.4c-0.4,0-0.7,0.1-0.9,0.4c-0.2,0.3-0.3,0.6-0.3,1v3.8h-1.2v-3.8
		c0-0.5-0.1-0.8-0.3-1c-0.2-0.2-0.5-0.4-0.9-0.4c-0.4,0-0.7,0.1-0.9,0.4c-0.2,0.2-0.4,0.6-0.4,1v3.8H-463.1z"/>
	<path fill="#171113" d="M-450.5,419.9c-0.9,0-1.5-0.3-2-0.8c-0.5-0.5-0.7-1.2-0.7-2.1v-0.5c0-0.9,0.2-1.6,0.7-2.1
		c0.5-0.5,1.1-0.8,1.9-0.8c0.8,0,1.5,0.3,1.9,0.8s0.7,1.2,0.7,2.1v0.5h-4v0.2c0,0.5,0.1,0.9,0.4,1.3c0.3,0.3,0.6,0.5,1.1,0.5
		c0.4,0,0.7-0.1,0.9-0.2c0.2-0.2,0.3-0.4,0.4-0.6h1.2c0,0.2-0.1,0.4-0.2,0.6c-0.1,0.2-0.2,0.4-0.4,0.6c-0.2,0.2-0.4,0.3-0.7,0.5
		C-449.8,419.8-450.1,419.9-450.5,419.9z M-452,416.1h2.9v0c0-0.5-0.1-0.9-0.4-1.2c-0.3-0.3-0.6-0.5-1-0.5c-0.4,0-0.8,0.2-1,0.5
		S-452,415.6-452,416.1L-452,416.1z"/>
	<path fill="#171113" d="M-446.6,419.8v-6.2h1.2v0.8h0c0.1-0.3,0.3-0.5,0.6-0.7c0.3-0.2,0.7-0.3,1.1-0.3c0.6,0,1.2,0.2,1.6,0.6
		c0.4,0.4,0.6,0.9,0.6,1.6v4.1h-1.2v-3.7c0-1-0.5-1.5-1.4-1.5c-0.5,0-0.8,0.1-1,0.4c-0.2,0.3-0.4,0.7-0.4,1.2v3.6H-446.6z"/>
	<path fill="#171113" d="M-439.5,413.6v-1.5h1.2v1.5h1.2v1h-1.2v3.4c0,0.3,0.1,0.6,0.2,0.7c0.1,0.1,0.4,0.2,0.8,0.2
		c0.1,0,0.2,0,0.3,0v0.9c-0.2,0-0.3,0-0.6,0c-0.4,0-0.7,0-0.9-0.1c-0.2-0.1-0.4-0.2-0.6-0.3s-0.2-0.3-0.3-0.5
		c-0.1-0.2-0.1-0.5-0.1-0.8v-3.5h-0.8v-1H-439.5z"/>
	<path fill="#171113" d="M-433.9,417.6h1.2c0,0.4,0.2,0.7,0.5,1s0.8,0.4,1.3,0.4c0.5,0,0.9-0.1,1.3-0.4c0.3-0.2,0.5-0.6,0.5-1
		c0-0.3-0.1-0.6-0.3-0.7c-0.2-0.2-0.5-0.3-1-0.4l-1.3-0.3c-0.3-0.1-0.5-0.2-0.7-0.3c-0.2-0.1-0.4-0.2-0.6-0.4
		c-0.2-0.2-0.3-0.4-0.4-0.6c-0.1-0.2-0.2-0.5-0.2-0.8c0-0.5,0.1-0.9,0.4-1.3c0.3-0.4,0.6-0.6,1-0.8c0.4-0.2,0.9-0.3,1.4-0.3
		c0.5,0,1,0.1,1.4,0.3c0.4,0.2,0.8,0.4,1,0.8c0.3,0.4,0.4,0.8,0.4,1.3h-1.2c0-0.4-0.2-0.7-0.5-0.9c-0.3-0.2-0.7-0.4-1.2-0.4
		c-0.5,0-0.9,0.1-1.2,0.3c-0.3,0.2-0.4,0.5-0.4,0.9c0,0.6,0.4,0.9,1.1,1.1l1.3,0.3c0.3,0.1,0.5,0.1,0.7,0.2c0.2,0.1,0.4,0.2,0.6,0.3
		c0.2,0.1,0.3,0.3,0.4,0.4c0.1,0.2,0.2,0.3,0.3,0.5c0.1,0.2,0.1,0.4,0.1,0.7c0,0.8-0.3,1.4-0.8,1.8c-0.6,0.4-1.3,0.6-2.2,0.6
		c-0.4,0-0.8,0-1.1-0.1c-0.3-0.1-0.6-0.2-0.8-0.4c-0.2-0.2-0.4-0.3-0.5-0.5c-0.1-0.2-0.3-0.4-0.3-0.6
		C-433.9,418-433.9,417.8-433.9,417.6z"/>
	<path fill="#171113" d="M-424.2,419.9c-0.9,0-1.5-0.3-2-0.8c-0.5-0.5-0.7-1.2-0.7-2.1v-0.5c0-0.9,0.2-1.6,0.7-2.1
		c0.5-0.5,1.1-0.8,1.9-0.8c0.8,0,1.5,0.3,1.9,0.8c0.4,0.5,0.7,1.2,0.7,2.1v0.5h-4v0.2c0,0.5,0.1,0.9,0.4,1.3
		c0.3,0.3,0.6,0.5,1.1,0.5c0.4,0,0.7-0.1,0.9-0.2c0.2-0.2,0.3-0.4,0.4-0.6h1.2c0,0.2-0.1,0.4-0.2,0.6c-0.1,0.2-0.2,0.4-0.4,0.6
		c-0.2,0.2-0.4,0.3-0.7,0.5C-423.5,419.8-423.8,419.9-424.2,419.9z M-425.7,416.1h2.9v0c0-0.5-0.1-0.9-0.4-1.2
		c-0.3-0.3-0.6-0.5-1-0.5c-0.4,0-0.8,0.2-1,0.5S-425.7,415.6-425.7,416.1L-425.7,416.1z"/>
	<path fill="#171113" d="M-420.2,419.8v-6.2h1.2v0.8h0c0.1-0.1,0.1-0.2,0.2-0.3c0.1-0.1,0.1-0.2,0.3-0.3c0.1-0.1,0.3-0.2,0.4-0.2
		c0.2-0.1,0.4-0.1,0.6-0.1c0.1,0,0.3,0,0.4,0v1.1c-0.1,0-0.3,0-0.5,0c-0.9,0-1.4,0.5-1.4,1.5v3.7H-420.2z"/>
	<path fill="#171113" d="M-414.5,419.8l-2.1-6.2h1.3l1.4,5h0l1.6-5h1.2l-2.2,6.2H-414.5z"/>
	<path fill="#171113" d="M-409.8,412.6c-0.1-0.1-0.2-0.3-0.2-0.5c0-0.2,0.1-0.4,0.2-0.5c0.1-0.1,0.3-0.2,0.5-0.2
		c0.2,0,0.4,0.1,0.5,0.2c0.1,0.1,0.2,0.3,0.2,0.5s-0.1,0.4-0.2,0.5c-0.1,0.1-0.3,0.2-0.5,0.2C-409.5,412.8-409.7,412.7-409.8,412.6z
		 M-409.9,419.8v-6.2h1.2v6.2H-409.9z"/>
	<path fill="#171113" d="M-407.2,417v-0.7c0-0.8,0.2-1.5,0.7-2c0.5-0.5,1.1-0.8,1.9-0.8c0.7,0,1.3,0.2,1.7,0.6
		c0.4,0.4,0.6,0.9,0.7,1.4h-1.1c0-0.3-0.2-0.5-0.4-0.7c-0.2-0.2-0.5-0.3-0.9-0.3c-0.5,0-0.8,0.2-1.1,0.5c-0.2,0.4-0.4,0.8-0.4,1.4
		v0.6c0,0.5,0.1,1,0.4,1.3c0.3,0.3,0.6,0.5,1.1,0.5c0.4,0,0.7-0.1,0.9-0.2c0.2-0.2,0.4-0.4,0.4-0.6h1.1c0,0.5-0.3,1-0.7,1.3
		c-0.4,0.4-1,0.6-1.7,0.6c-0.8,0-1.5-0.3-1.9-0.8C-407,418.6-407.2,417.9-407.2,417z"/>
	<path fill="#171113" d="M-398.4,419.9c-0.9,0-1.5-0.3-2-0.8c-0.5-0.5-0.7-1.2-0.7-2.1v-0.5c0-0.9,0.2-1.6,0.7-2.1
		c0.5-0.5,1.1-0.8,1.9-0.8c0.8,0,1.5,0.3,1.9,0.8c0.4,0.5,0.7,1.2,0.7,2.1v0.5h-4v0.2c0,0.5,0.1,0.9,0.4,1.3
		c0.3,0.3,0.6,0.5,1.1,0.5c0.4,0,0.7-0.1,0.9-0.2c0.2-0.2,0.3-0.4,0.4-0.6h1.2c0,0.2-0.1,0.4-0.2,0.6c-0.1,0.2-0.2,0.4-0.4,0.6
		c-0.2,0.2-0.4,0.3-0.7,0.5C-397.7,419.8-398,419.9-398.4,419.9z M-399.9,416.1h2.9v0c0-0.5-0.1-0.9-0.4-1.2c-0.3-0.3-0.6-0.5-1-0.5
		c-0.4,0-0.8,0.2-1,0.5S-399.9,415.6-399.9,416.1L-399.9,416.1z"/>
	<path fill="#171113" d="M-394.8,415.4c0-0.3,0.1-0.6,0.2-0.8c0.1-0.2,0.3-0.4,0.5-0.6c0.2-0.1,0.5-0.3,0.7-0.3
		c0.3-0.1,0.6-0.1,0.9-0.1c0.7,0,1.3,0.2,1.6,0.5c0.4,0.3,0.6,0.8,0.6,1.3h-1.1c0-0.3-0.1-0.5-0.3-0.7c-0.2-0.2-0.5-0.3-0.9-0.3
		c-0.4,0-0.6,0.1-0.8,0.2s-0.3,0.4-0.3,0.7c0,0.1,0,0.2,0.1,0.3c0.1,0.1,0.1,0.2,0.2,0.2c0.1,0.1,0.2,0.1,0.3,0.2
		c0.2,0.1,0.3,0.1,0.3,0.1c0.1,0,0.2,0,0.4,0.1c0,0,0,0,0.1,0c0,0,0,0,0,0c0,0,0,0,0.1,0c0.3,0,0.5,0.1,0.7,0.1
		c0.2,0.1,0.4,0.1,0.6,0.2c0.2,0.1,0.3,0.2,0.5,0.3c0.1,0.1,0.2,0.3,0.3,0.4c0.1,0.2,0.1,0.4,0.1,0.6c0,0.6-0.2,1.1-0.7,1.4
		c-0.4,0.3-1.1,0.5-1.8,0.5c-0.7,0-1.3-0.2-1.7-0.5c-0.4-0.3-0.6-0.8-0.6-1.3h1.1c0,0.3,0.2,0.5,0.4,0.7c0.2,0.2,0.5,0.2,0.9,0.2
		c0.4,0,0.8-0.1,1-0.3c0.2-0.2,0.3-0.4,0.3-0.7c0-0.3-0.2-0.5-0.5-0.7c-0.2-0.1-0.5-0.2-1-0.3c-0.3-0.1-0.5-0.1-0.7-0.2
		c-0.2,0-0.4-0.1-0.6-0.2c-0.2-0.1-0.3-0.2-0.5-0.3c-0.1-0.1-0.2-0.3-0.3-0.4C-394.8,415.8-394.8,415.6-394.8,415.4z"/>
</g>
</svg>
