<?xml version="1.0" encoding="utf-8"?>
<!-- Generator: Adobe Illustrator 16.0.0, SVG Export Plug-In . SVG Version: 6.00 Build 0)  -->
<!DOCTYPE svg PUBLIC "-//W3C//DTD SVG 1.1//EN" "http://www.w3.org/Graphics/SVG/1.1/DTD/svg11.dtd">
<svg version="1.1" id="Layer_1" xmlns="http://www.w3.org/2000/svg" xmlns:xlink="http://www.w3.org/1999/xlink" x="0px" y="0px"
     width="155.818px" height="30px" viewBox="0 9.972 155.818 30" enable-background="new 0 9.972 155.818 30" xml:space="preserve">
<path fill="#FFFFFF" d="M12.151,25.409l1.856-8.244c0.568-2.361,0.658-2.838,1.077-4.959l0.179-0.18
	c2.54,0.001,3.287-0.03,6.186-0.087l0.21,0.178c0.027,2.479,0.058,3.136,0.207,6.394l0.177,4.632
	c0.267,5.587,0.328,6.901,0.506,9.799l-0.15,0.18c-2.21-0.031-2.897,0.001-4.689,0.089l-0.18-0.181
	c-0.028-3.735-0.028-4.214-0.116-8.365l-0.058-8.007l-2.273,9.77c-0.747,3.315-1.077,4.81-1.404,6.512l-0.211,0.182
	c-1.523-0.032-2.031,0-3.614,0.086l-0.18-0.178c-0.417-1.912-0.923-4.213-1.401-6.306l-2.208-9.83l-0.182,6.871
	c-0.152,6.215-0.152,6.872-0.153,9.173l-0.146,0.181c-1.614-0.001-2.15-0.001-3.915,0.087l-0.15-0.179
	c0.272-4.899,0.301-5.438,0.48-8.664l0.271-6.574c0.09-2.807,0.12-4.213,0.15-5.586l0.179-0.181c2.631,0.001,3.438,0,6.336-0.086
	l0.179,0.18c0.328,1.583,0.359,1.675,1.075,4.81L12.151,25.409z"/>
<path fill="#FFFFFF" d="M32.677,31.423c-0.836,0.895-2.122,2.002-4.124,2.001c-3.228-0.002-3.524-2.899-3.615-3.617
	c-0.089-0.896-0.09-1.885-0.089-3.646l0.001-1.583c0.032-4.3,0.002-5.018-0.088-7.05l0.149-0.18c1.883,0,2.36,0.003,4.363-0.177
	l0.179,0.178c0,1.047-0.062,6.155-0.062,7.292c-0.001,0.716-0.001,3.165,0.089,3.705c0.03,0.327,0.208,1.402,1.434,1.401
	c0.865,0.002,1.314-0.477,1.703-0.863v-2.449c0-0.567-0.088-6.422-0.176-8.904l0.18-0.178c1.972-0.03,2.479-0.06,4.393-0.178
	l0.179,0.178c-0.029,1.854-0.061,2.899-0.061,5.735c0,0.627-0.002,4.483,0.027,6.214c0.028,1.675,0.059,2.721,0.089,3.646
	l-0.15,0.181c-2.122-0.031-2.479-0.002-4.333,0.058l-0.149-0.119L32.677,31.423z"/>
<path fill="#FFFFFF" d="M44.566,33.13c-1.972-0.031-2.539-0.032-4.629,0.087l-0.15-0.179c0.061-1.853,0.121-3.854,0.123-8.098
	c0-2.719,0.002-5.498-0.028-8.214c-0.057-2.988-0.148-4.006-0.237-5.438l0.15-0.181c2.001-0.325,2.719-0.445,4.57-0.835l0.181,0.18
	c-0.032,1.734-0.032,2.837-0.033,5.319c0,0.987,0.029,7.708,0.057,11.651c0.061,2.629,0.118,4.093,0.179,5.528L44.566,33.13z"/>
<path fill="#FFFFFF" d="M54.192,20.641c-1.314-0.027-1.345-0.029-2.062-0.028v3.764c-0.031,0.806-0.031,1.881-0.031,2.688
	c0,1.524,0.028,2.988,1.374,2.988c0.479,0,0.807-0.18,0.987-0.299l0.178,0.148c-0.09,1.314-0.12,1.522-0.148,2.929l-0.181,0.239
	c-0.687,0.209-1.522,0.297-2.45,0.297c-0.656,0.001-2.539,0-3.554-1.346c-0.747-1.017-0.746-2.332-0.716-4.451l0.001-1.793
	c-0.001-0.746,0.03-4.393,0.03-5.228c-0.537,0-0.837,0.029-1.463,0.06l-0.148-0.182c0.059-1.343,0.059-1.343,0.12-2.926l0.178-0.179
	c0.568,0.029,0.716,0.029,1.345,0c0-0.539,0-0.837-0.03-3.647l0.149-0.208c1.975-0.478,2.542-0.657,4.275-1.193l0.209,0.149
	c-0.062,1.314-0.091,1.674-0.122,4.99c1.074-0.031,1.315-0.031,2.181-0.09l0.181,0.179c-0.092,1.375-0.092,1.555-0.151,2.928
	L54.192,20.641z"/>
<path fill="#FFFFFF" d="M60.82,33.132c-1.912-0.028-2.63-0.03-4.719,0.088l-0.181-0.179c0.09-1.912,0.153-3.795,0.151-7.171
	c0.003-4.719-0.146-6.363-0.266-7.947l0.148-0.179c2.093-0.299,2.631-0.39,4.69-0.836l0.181,0.179
	c-0.03,0.418-0.03,0.837-0.03,1.227c-0.03,1.793-0.062,3.554-0.062,5.348c-0.001,3.106,0.059,6.185,0.267,9.29L60.82,33.132z
	 M60.378,14.52c-1.793,0.209-2.331,0.268-4.153,0.596l-0.18-0.18c0.031-1.581,0.001-1.973-0.059-3.615l0.18-0.178
	c2.062-0.208,2.419-0.269,4.242-0.537l0.18,0.179c-0.062,1.704-0.031,2.152-0.032,3.556L60.378,14.52z"/>
<path fill="#FFFFFF" d="M73.731,16.496c-0.747-0.628-1.672-1.376-3.344-1.376c-1.525,0-2.51,0.896-2.511,2.182
	c0,0.956,0.476,1.612,1.435,2.329c0.296,0.27,1.911,1.346,2.27,1.584c1.882,1.316,3.403,2.69,3.403,5.678
	c-0.002,2.002-0.718,3.525-1.555,4.479c-1.555,1.765-3.675,2.15-5.707,2.15c-1.167,0-2.928-0.181-4.48-0.957l-0.18-0.3
	c0.029-0.627,0.088-1.283,0.12-1.942c0.03-0.566,0.06-1.136,0.061-1.701l0.238-0.09c1.017,0.955,2.33,1.466,3.704,1.465
	c2.24,0.001,2.837-1.582,2.837-2.6c0.003-1.312-0.835-2.031-2.269-3.018L66.5,23.512c-1.554-1.104-3.495-2.478-3.495-5.765
	c0-2.15,0.809-3.614,1.675-4.451c1.404-1.374,3.286-1.673,4.96-1.672c1.522,0.002,3.077,0.271,4.451,0.957l0.119,0.24
	c-0.06,0.628-0.119,1.254-0.151,1.881l-0.09,1.704L73.731,16.496z"/>
<path fill="#FFFFFF" d="M83.795,31.884c-0.478,0.447-1.582,1.523-3.555,1.523c-2.241-0.001-4.004-1.734-4.004-4.932
	c0.001-4.51,3.945-5.527,7.473-6.183c0-1.015,0-2.151-2.121-2.152c-1.974-0.001-3.167,0.777-3.824,1.196l-0.209-0.121
	c0.089-1.375,0.119-1.762,0.15-3.018l0.181-0.239c1.732-0.776,3.973-0.985,5.08-0.985c1.164,0,3.524,0.18,4.628,2.093
	c0.659,1.165,0.657,2.541,0.599,4.991l-0.03,2.359c-0.032,2.509-0.002,4.212,0.235,6.542l-0.209,0.182
	c-2.002-0.03-2.448-0.001-4.18,0.058l-0.213-0.148L83.795,31.884L83.795,31.884z M83.738,25.042
	c-1.254,0.18-3.227,0.507-3.229,2.927c0,1.255,0.656,2.062,1.613,2.062c0.867,0,1.375-0.537,1.611-0.805L83.738,25.042z"/>
<path fill="#FFFFFF" d="M97.812,20.655c-0.867-0.029-1.347-0.028-1.883-0.029c-0.004,7.05,0.117,9.857,0.204,12.369l-0.179,0.148
	c-2.148,0-2.599,0-4.571,0.088l-0.148-0.179c0-0.358,0.001-0.748,0.032-1.105c0.059-2.091,0.061-8.695,0.061-11.354
	c-0.655,0-0.835,0.03-1.493,0.062l-0.148-0.181c0.06-1.105,0.088-1.522,0.149-2.958l0.18-0.177c0.567,0.059,0.718,0.059,1.314,0.059
	c-0.028-2.331-0.06-4.242,0.896-5.468c1.195-1.552,3.406-1.551,4.093-1.552c1.049,0,1.735,0.148,2.093,0.209l0.118,0.178
	c-0.119,1.314-0.148,1.646-0.18,3.107l-0.208,0.179c-0.211-0.119-0.391-0.209-0.719-0.209c-0.567,0-0.954,0.299-1.164,0.629
	c-0.36,0.534-0.359,1.103-0.36,2.956c0.928,0,1.226,0,2.094-0.058l0.178,0.178c-0.119,1.316-0.119,1.614-0.178,2.93L97.812,20.655z"
	/>
<path fill="#FFFFFF" d="M103.547,26.183c0.058,2.63,1.493,3.975,3.734,3.976c1.789,0,2.838-0.746,3.253-1.074l0.212,0.119
	c-0.093,1.285-0.121,1.853-0.153,3.104l-0.118,0.242c-0.627,0.536-2.507,0.955-4.242,0.954c-5.14-0.001-7.199-3.259-7.197-8.278
	c0.001-1.074,0.089-2.182,0.358-3.255c0.899-3.645,3.41-4.988,6.037-4.988c0.868,0.002,1.735,0.15,2.54,0.509
	c2.809,1.257,3.285,4.064,3.286,6.963c0.001,0.569-0.031,1.134-0.03,1.554l-0.211,0.179L103.547,26.183z M106.861,23.346
	c0.002-0.479,0.002-0.985-0.088-1.524c-0.147-0.984-0.625-1.792-1.491-1.792c-0.42,0.001-1.675,0.179-1.766,3.314L106.861,23.346z"
	/>
<path fill="#FFFFFF" d="M117.828,17.106c-0.029,0.688-0.029,0.777-0.029,1.495c0.688-0.629,1.767-1.585,3.469-1.585
	c1.821,0,2.926,1.108,3.553,2.094c1.046,1.612,1.256,3.825,1.257,5.289c-0.004,2.121-0.306,6.721-4.486,8.364
	c-1.286,0.478-2.062,0.446-3.677,0.445c0.029,2.18,0.118,4.871,0.179,6.065l-0.18,0.179c-0.599-0.029-1.194-0.062-1.763-0.062
	c-0.928,0-1.7,0.061-2.779,0.121l-0.18-0.183c0.092-2.388,0.121-4.778,0.123-7.14c0.001-4.749,0.002-9.531-0.415-14.25l0.149-0.179
	c2.182-0.299,2.748-0.418,4.572-0.805L117.828,17.106z M118.005,30.011c0.148,0.031,0.269,0.029,0.417,0.031h0.24
	c2.631-0.27,2.689-3.824,2.69-5.288c0-0.806-0.06-2.181-0.506-3.166c-0.092-0.21-0.51-1.076-1.436-1.077
	c-0.657,0-1.106,0.448-1.467,0.807C117.946,24.453,117.977,25.89,118.005,30.011"/>
<path fill="#FFFFFF" d="M134.824,31.9c-0.478,0.446-1.582,1.521-3.554,1.521c-2.242,0-4.006-1.732-4.006-4.932
	c0-4.51,3.947-5.526,7.471-6.183c0-1.015,0.002-2.149-2.116-2.149c-1.976,0-3.167,0.776-3.825,1.194l-0.208-0.12
	c0.087-1.376,0.119-1.764,0.146-3.018l0.183-0.239c1.729-0.775,3.977-0.984,5.079-0.984c1.165,0.001,3.522,0.18,4.632,2.093
	c0.653,1.164,0.653,2.54,0.594,4.989l-0.031,2.359c-0.026,2.509,0.001,4.214,0.238,6.542l-0.209,0.184
	c-2.001-0.033-2.449-0.002-4.182,0.057l-0.21-0.149L134.824,31.9z M134.767,25.058c-1.255,0.179-3.228,0.507-3.226,2.927
	c-0.002,1.255,0.654,2.062,1.61,2.062c0.865,0,1.374-0.538,1.613-0.807L134.767,25.058z"/>
<path fill="#FFFFFF" d="M143.518,39.314c0.748-1.733,1.074-2.721,2.031-5.618c-1.343-4.722-3.758-12.4-5.102-16.107l0.147-0.178
	c2.18-0.03,2.6-0.059,4.721-0.208l0.24,0.179c0.326,1.585,0.418,2.032,1.223,5.289l1.135,4.513l1.228-4.811
	c0.565-2.15,0.599-2.329,1.166-4.868l0.18-0.179c1.672,0.031,2.093,0.031,3.705-0.06l0.117,0.179
	c-0.774,2.36-0.956,3.019-2.721,8.785l-1.494,4.899c-1.197,4.151-1.705,5.974-2.184,8.124l-0.209,0.179c-1.941,0-2.33,0-4.035,0.062
	L143.518,39.314z"/>
</svg>
